<?xml version="1.0" encoding="UTF-8"?>
<svg width="122px" height="29px" viewBox="0 0 122 29" version="1.1" xmlns="http://www.w3.org/2000/svg" xmlns:xlink="http://www.w3.org/1999/xlink">
    <!-- Generator: Sketch 51.3 (57544) - http://www.bohemiancoding.com/sketch -->
    <title>LOGO/для белого</title>
    <desc>Created with Sketch.</desc>
    <defs></defs>
    <g id="Symbols" stroke="none" stroke-width="1" fill="none" fill-rule="evenodd">
        <g id="Footer/x-Краткий" transform="translate(-151.000000, -21.000000)">
            <g id="LOGO/для-белого" transform="translate(144.000000, 17.000000)">
                <g id="Group" transform="translate(7.116279, 4.750000)">
                    <path d="M53.3569846,14.6113654 C52.8789166,15.0103654 52.5862369,15.55625 52.480405,16.2475577 L57.7603191,16.2475577 C57.6537574,15.5686731 57.3618075,15.0271731 56.8837395,14.6215962 C56.4056716,14.2152885 55.8210419,14.0128654 55.1305803,14.0128654 C54.4262512,14.0128654 53.8350526,14.2123654 53.3569846,14.6113654 M60.6294569,18.0627885 L52.5198182,18.0627885 C52.6657932,18.7277885 53.011024,19.2539423 53.5562404,19.6390577 C54.100727,20.0249038 54.7780508,20.2170962 55.5889417,20.2170962 C56.146566,20.2170962 56.6414211,20.1345192 57.0727771,19.9679038 C57.504863,19.80275 57.9062941,19.5396731 58.2785302,19.1801346 L59.9324265,20.9756346 C58.9222798,22.1324423 57.4479327,22.7112115 55.5086555,22.7112115 C54.2999828,22.7112115 53.2307163,22.4751731 52.3008558,22.0030962 C51.3709953,21.5310192 50.6535284,20.8755192 50.1484551,20.0380577 C49.6433818,19.1998654 49.391575,18.2498654 49.391575,17.1851346 C49.391575,16.1342885 49.6404623,15.1872115 50.1382369,14.3417115 C50.6367413,13.4976731 51.320634,12.83925 52.1906447,12.3671731 C53.0613853,11.8950962 54.0343084,11.6590577 55.1101438,11.6590577 C56.1597038,11.6590577 57.1092708,11.8855962 57.9603048,12.3372115 C58.8098791,12.7895577 59.4777145,13.43775 59.9623513,14.2825192 C60.4469882,15.1272885 60.6900365,16.10725 60.6900365,17.2253269 C60.6900365,17.2647885 60.6703299,17.5446731 60.6294569,18.0627885 Z M73.5478025,7.74900385 L73.5478025,22.5521962 L70.5794018,22.5521962 L70.5794018,21.3150038 C69.808654,22.2460038 68.6926755,22.7115038 67.2314662,22.7115038 C66.2220494,22.7115038 65.3082462,22.4856962 64.4915163,22.0326192 C63.6747864,21.5810038 63.0332265,20.9357346 62.5690261,20.0982731 C62.1040959,19.2600808 61.8712658,18.2888885 61.8712658,17.1854269 C61.8712658,16.0812346 62.1040959,15.1100423 62.5690261,14.2725808 C63.0332265,13.4343885 63.6747864,12.7891192 64.4915163,12.3367731 C65.3082462,11.8851577 66.2220494,11.65935 67.2314662,11.65935 C68.5992515,11.65935 69.6692479,12.0912346 70.4392658,12.9557346 L70.4392658,7.74900385 L73.5478025,7.74900385 Z M69.7225288,19.3499654 C70.24001,18.8113885 70.4991156,18.0893885 70.4991156,17.1854269 C70.4991156,16.2807346 70.24001,15.5594654 69.7225288,15.0208885 C69.2043177,14.4815808 68.5532694,14.2119269 67.7693839,14.2119269 C66.9723606,14.2119269 66.3154733,14.4815808 65.7972623,15.0208885 C65.2790512,15.5594654 65.0199456,16.2807346 65.0199456,17.1854269 C65.0199456,18.0893885 65.2790512,18.8113885 65.7972623,19.3499654 C66.3154733,19.8885423 66.9723606,20.1574654 67.7693839,20.1574654 C68.5532694,20.1574654 69.2043177,19.8885423 69.7225288,19.3499654 Z M86.9063356,11.8185846 L86.9063356,22.5521231 L83.9569116,22.5521231 L83.9569116,21.2747385 C83.5459921,21.7409692 83.0540565,22.0968538 82.4825646,22.3423923 C81.9110726,22.5886615 81.2935986,22.7114308 80.6294125,22.7114308 C79.2214841,22.7114308 78.1055055,22.3065846 77.2814769,21.4947 C76.4581782,20.6835462 76.0465288,19.4792385 76.0465288,17.8832385 L76.0465288,11.8185846 L79.1550655,11.8185846 L79.1550655,17.4243154 C79.1550655,19.1540462 79.8791013,20.0178154 81.3271728,20.0178154 C82.0709152,20.0178154 82.6686826,19.7759308 83.1204751,19.2899692 C83.5715377,18.8047385 83.7977989,18.0834692 83.7977989,17.1254308 L83.7977989,11.8185846 L86.9063356,11.8185846 Z M91.6626376,22.0033154 C90.7524837,21.5312385 90.0415857,20.8757385 89.5306733,20.0382769 C89.0190311,19.2000846 88.763575,18.2493538 88.763575,17.1853538 C88.763575,16.1213538 89.0190311,15.1706231 89.5306733,14.3324308 C90.0415857,13.4942385 90.7524837,12.8394692 91.6626376,12.3673923 C92.5727914,11.8953154 93.5989953,11.6592769 94.7412494,11.6592769 C95.8703657,11.6592769 96.8564265,11.8953154 97.7001617,12.3673923 C98.543897,12.8394692 99.1584515,13.5147 99.5438254,14.3916231 L97.133049,15.6887385 C96.5746948,14.7043923 95.7703728,14.2118538 94.7215428,14.2118538 C93.9113818,14.2118538 93.239897,14.4785846 92.709278,15.0105846 C92.1779292,15.5425846 91.9115249,16.2667769 91.9115249,17.1853538 C91.9115249,18.1032 92.1779292,18.8281231 92.709278,19.3593923 C93.239897,19.8921231 93.9113818,20.1581231 94.7215428,20.1581231 C95.7842404,20.1581231 96.5878326,19.6663154 97.133049,18.6819692 L99.5438254,19.9980846 C99.1584515,20.8494308 98.543897,21.5144308 97.7001617,21.9938154 C96.8564265,22.4724692 95.8703657,22.7114308 94.7412494,22.7114308 C93.5989953,22.7114308 92.5727914,22.4753923 91.6626376,22.0033154 Z M112.077235,11.8186577 L112.077235,22.5521962 L109.108104,22.5521962 L109.108104,21.3150038 C108.337357,22.2460038 107.221378,22.7115038 105.760169,22.7115038 C104.750752,22.7115038 103.837679,22.4856962 103.020219,22.0326192 C102.203489,21.5810038 101.562659,20.9357346 101.097729,20.0982731 C100.632799,19.2600808 100.399969,18.2888885 100.399969,17.1854269 C100.399969,16.0812346 100.632799,15.1100423 101.097729,14.2725808 C101.562659,13.4343885 102.203489,12.7891192 103.020219,12.3367731 C103.837679,11.8851577 104.750752,11.65935 105.760169,11.65935 C107.128684,11.65935 108.197951,12.0912346 108.968698,12.9557346 L108.968698,11.8186577 L112.077235,11.8186577 Z M108.251231,19.3499654 C108.769443,18.8113885 109.028548,18.0893885 109.028548,17.1854269 C109.028548,16.2807346 108.769443,15.5594654 108.251231,15.0208885 C107.73302,14.4815808 107.081972,14.2119269 106.298816,14.2119269 C105.501063,14.2119269 104.844176,14.4815808 104.325965,15.0208885 C103.807754,15.5594654 103.548648,16.2807346 103.548648,17.1854269 C103.548648,18.0893885 103.807754,18.8113885 104.325965,19.3499654 C104.844176,19.8885423 105.501063,20.1574654 106.298816,20.1574654 C107.081972,20.1574654 107.73302,19.8885423 108.251231,19.3499654 Z M121.822669,22.0329115 C121.516852,22.2601808 121.141696,22.4289885 120.697202,22.5422577 C120.251249,22.6547962 119.783399,22.7117962 119.292193,22.7117962 C118.016372,22.7117962 117.030311,22.3851423 116.333281,21.7332962 C115.635521,21.0821808 115.28664,20.1248731 115.28664,18.8606423 L115.28664,14.4519115 L113.632744,14.4519115 L113.632744,12.0579115 L115.28664,12.0579115 L115.28664,9.44395 L118.395177,9.44395 L118.395177,12.0579115 L121.065059,12.0579115 L121.065059,14.4519115 L118.395177,14.4519115 L118.395177,18.82045 C118.395177,19.2735269 118.511227,19.6228346 118.744057,19.8683731 C118.976157,20.1146423 119.305331,20.2374115 119.730118,20.2374115 C120.222054,20.2374115 120.640272,20.1051423 120.986233,19.8391423 L121.822669,22.0329115 Z" id="Combined-Shape" fill="#000000"></path>
                    <path d="M32.756561,18.8664885 C31.1566755,18.8664885 29.859688,17.5679115 29.859688,15.9653346 C29.859688,14.3634885 31.1566755,13.0649115 32.756561,13.0649115 C33.7294841,13.0649115 34.5863571,13.5494115 35.1118669,14.2860269 C35.0235521,14.2721423 34.9345073,14.2589885 34.8418132,14.2589885 C33.9002748,14.2589885 33.1375556,15.0233731 33.1375556,15.9653346 C33.1375556,16.9080269 33.9002748,17.6716808 34.8418132,17.6716808 C34.9345073,17.6716808 35.0235521,17.6592577 35.1118669,17.6446423 C34.5863571,18.3819885 33.7294841,18.8664885 32.756561,18.8664885 M7.25254669,18.8664885 C5.65266118,18.8664885 4.35494383,17.5679115 4.35494383,15.9653346 C4.35494383,14.3634885 5.65266118,13.0649115 7.25254669,13.0649115 C8.22619964,13.0649115 9.08234275,13.5494115 9.60785259,14.2860269 C9.51953775,14.2721423 9.43049302,14.2589885 9.33779893,14.2589885 C8.39699034,14.2589885 7.63354132,15.0233731 7.63354132,15.9653346 C7.63354132,16.9080269 8.39699034,17.6716808 9.33779893,17.6716808 C9.43049302,17.6716808 9.51953775,17.6592577 9.60785259,17.6446423 C9.08234275,18.3819885 8.22619964,18.8664885 7.25254669,18.8664885 M36.8533481,0.000219230769 C33.2039742,9.00256538 26.8095413,6.14598846 19.5144429,6.69187308 C12.1485467,7.24214231 6.52194204,10.4575269 3.23823542,2.31529615 C-12.5000544,33.1223346 35.3082032,34.3105654 15.3811621,16.85395 L24.6009403,16.85395 C7.25254669,27.4815269 52.5595234,36.3822962 36.8533481,0.000219230769" id="Fill-13" fill="#0A54FF"></path>
                </g>
            </g>
        </g>
    </g>
</svg>